<svg aria-hidden="true" style="position: absolute; width: 0; height: 0; overflow: hidden;" version="1.1" xmlns="http://www.w3.org/2000/svg" xmlns:xlink="http://www.w3.org/1999/xlink">
<defs>
<symbol id="icon-envelope" viewBox="0 0 39 32">
<path fill="currentColor" d="M35.692 2.433h-32c-2.036 0-3.692 1.656-3.692 3.691v22.146c0 2.035 1.656 3.691 3.692 3.691h32c2.036 0 3.692-1.656 3.692-3.691v-22.146c0-2.035-1.656-3.691-3.692-3.691zM35.692 4.894c0.167 0 0.326 0.035 0.472 0.095l-16.472 14.271-16.472-14.271c0.145-0.060 0.305-0.095 0.472-0.095h32zM35.692 29.501h-32c-0.679 0-1.231-0.551-1.231-1.23v-20.682l16.424 14.23c0.232 0.201 0.519 0.3 0.806 0.3s0.575-0.1 0.806-0.3l16.424-14.229v20.682c0 0.679-0.552 1.23-1.231 1.23z"></path>
</symbol>
<symbol id="icon-smartphone" viewBox="0 0 20 32">
<path fill="currentColor" d="M17 0h-14c-1.654 0-3 1.346-3 3v26c0 1.654 1.346 3 3 3h14c1.654 0 3-1.346 3-3v-26c0-1.654-1.346-3-3-3zM3 2h14c0.552 0 1 0.448 1 1v21h-16v-21c0-0.552 0.448-1 1-1zM17 30h-14c-0.552 0-1-0.448-1-1v-3h16v3c0 0.552-0.448 1-1 1z"></path>
<path fill="currentColor" d="M4.707 27.478c0.391 0.365 0.391 0.956 0 1.32s-1.024 0.364-1.414 0c-0.391-0.365-0.391-0.956 0-1.32s1.024-0.365 1.414 0z"></path>
</symbol>
</defs>
</svg>
